# xmcd
#
# Track frame offsets:
#	150
#	20992
#	43677
#	59577
#	85255
#	106373
#	122003
#	144545
#	168482
#	186145
#
# Disc length: 2719 seconds
#
# Revision: 2174992341
# Processed by: cddbd v1.5.2PL0 Copyright (c) Steve Scherf et al.
# Submitted via: EZCDAudioConverter 8.0.2.1
#
DISCID=8f0a9d0a
DTITLE=Various Artist - Áo Trắng Tuyển Chọn. Cô Bé Tóc Đuôi Gà
DYEAR=1998
DGENRE=World Pop
TTITLE0=Thủy Tiên - Con gái bây giờ
TTITLE1=Lam Trường - Cha yêu
TTITLE2=Ngọc Linh and Diễm Quyên - Kỷ niệm mùa hè
TTITLE3=Quỳnh Giang - Cảm xúc chiều mưa
TTITLE4=Nguyễn Đức - Cô Bé Tóc Đuôi Gà
TTITLE5=Hoàng Kim - Góc phố dịu dàng
TTITLE6=Hồng Ngọc - Ngây thơ
TTITLE7=Tam ca Áo Trắng - Như mây xuống phố
TTITLE8=Thanh Thảo - Em tôi
TTITLE9=Tốp nữ - Ngôi trường dấu yêu
EXTD=
EXTT0=
EXTT1=
EXTT2=
EXTT3=
EXTT4=
EXTT5=
EXTT6=
EXTT7=
EXTT8=
EXTT9=
PLAYORDER=
